<svg preserveAspectRatio="none" overflow="visible" style="display: block;" width="21.2308" height="21.2308" viewBox="0 0 21.2308 21.2308" fill="none" xmlns="http://www.w3.org/2000/svg">
<g id="Communication / Bell">
<g id="Vector">
<path d="M4.24931 12.5583L3.90475 12.9028C3.79921 13.0084 3.74638 13.0614 3.70433 13.12C3.62485 13.2306 3.57221 13.3581 3.55014 13.4925C3.53846 13.5637 3.53846 13.6383 3.53846 13.7876C3.53846 14.1286 3.53846 14.2991 3.58486 14.4367C3.67314 14.6984 3.87886 14.904 4.14059 14.9922C4.27761 15.0385 4.44697 15.0385 4.78538 15.0385H7.96154H13.2692H16.4454C16.7838 15.0385 16.9538 15.0385 17.0909 14.9922C17.3526 14.904 17.5574 14.6985 17.6457 14.4367C17.6921 14.2992 17.6921 14.1286 17.6921 13.7876C17.6921 13.6383 17.6919 13.5637 17.6802 13.4925C17.6581 13.3581 17.606 13.2306 17.5265 13.1199C17.4845 13.0614 17.4311 13.0081 17.3259 12.9028L16.9813 12.5583C16.8702 12.4471 16.8077 12.2963 16.8077 12.1391V8.84615C16.8077 5.42623 14.0353 2.65384 10.6154 2.65385C7.19547 2.65385 4.42308 5.42624 4.42308 8.84615V12.1391C4.42308 12.2963 4.36049 12.4471 4.24931 12.5583Z" fill="#4D0F14"/>
<path d="M13.2692 15.0385V15.9231C13.2692 17.3888 12.0811 18.5769 10.6154 18.5769C9.14971 18.5769 7.96154 17.3888 7.96154 15.9231V15.0385M13.2692 15.0385H7.96154M13.2692 15.0385H16.4454C16.7838 15.0385 16.9538 15.0385 17.0909 14.9922C17.3526 14.904 17.5574 14.6985 17.6457 14.4367C17.6921 14.2992 17.6921 14.1286 17.6921 13.7876C17.6921 13.6383 17.6919 13.5637 17.6802 13.4925C17.6581 13.3581 17.606 13.2306 17.5265 13.1199C17.4845 13.0614 17.4311 13.0081 17.3259 12.9028L16.9813 12.5583C16.8702 12.4471 16.8077 12.2963 16.8077 12.1391V8.84615C16.8077 5.42623 14.0353 2.65384 10.6154 2.65385C7.19547 2.65385 4.42308 5.42624 4.42308 8.84615V12.1391C4.42308 12.2963 4.36049 12.4471 4.24931 12.5583L3.90475 12.9028C3.79921 13.0084 3.74638 13.0614 3.70433 13.12C3.62485 13.2306 3.57221 13.3581 3.55014 13.4925C3.53846 13.5637 3.53846 13.6383 3.53846 13.7876C3.53846 14.1286 3.53846 14.2991 3.58486 14.4367C3.67314 14.6984 3.87886 14.904 4.14059 14.9922C4.27761 15.0385 4.44697 15.0385 4.78538 15.0385H7.96154" stroke="#4D0F14" stroke-width="1.32692" stroke-linecap="round" stroke-linejoin="round"/>
</g>
<path id="Vector_2" d="M15.9101 6.95087C16.7105 6.49388 17.25 5.63225 17.25 4.64462C17.25 3.17894 16.0617 2.00807 14.5962 1.99077C14.1325 1.9853 13.8521 2.0367 13.4351 2.23957C13.0809 2.41187 12.6368 2.85592 12.6368 2.85592L12.6359 2.85564C12.2051 3.32745 11.9423 3.95535 11.9423 4.64462C11.9423 6.11029 13.1305 7.29846 14.5962 7.29846C15.0742 7.29846 15.5227 7.17207 15.9101 6.95087Z" fill="#EB4214" stroke="#CEC5C2" stroke-width="0.995192" stroke-linecap="round" stroke-linejoin="round"/>
</g>
</svg>
